HIERARCHY
ROOT ui
{
	 OFFSET 0 0 0
	 CHANNELS 3 XPosition YPosition Z Position
	 EndSite
	 {
	 OFFSET 0 -1 0
	 }
}
ROOT li
{
	 OFFSET 0 0 0
	 CHANNELS 3 XPosition YPosition Z Position
	 EndSite
	 {
	 OFFSET 0 -1 0
	 }
}
ROOT ul
{
	 OFFSET 0 0 0
	 CHANNELS 3 XPosition YPosition Z Position
	 EndSite
	 {
	 OFFSET 0 -1 0
	 }
}
ROOT ll
{
	 OFFSET 0 0 0
	 CHANNELS 3 XPosition YPosition Z Position
	 EndSite
	 {
	 OFFSET 0 -1 0
	 }
}
ROOT tt
{
	 OFFSET 0 0 0
	 CHANNELS 3 XPosition YPosition Z Position
	 EndSite
	 {
	 OFFSET 0 -1 0
	 }
}
ROOT tb
{
	 OFFSET 0 0 0
	 CHANNELS 3 XPosition YPosition Z Position
	 EndSite
	 {
	 OFFSET 0 -1 0
	 }
}
ROOT td
{
	 OFFSET 0 0 0
	 CHANNELS 3 XPosition YPosition Z Position
	 EndSite
	 {
	 OFFSET 0 -1 0
	 }
}
ROOT v
{
	 OFFSET 0 0 0
	 CHANNELS 3 XPosition YPosition Z Position
	 EndSite
	 {
	 OFFSET 0 -1 0
	 }
}
ROOT bn
{
	 OFFSET 0 0 0
	 CHANNELS 3 XPosition YPosition Z Position
	 EndSite
	 {
	 OFFSET 0 -1 0
	 }
}
MOTION
Frames: 13
Frame Time: 0.002
3.28233003616333E-4	2.1893000602722168E-4	0		0.474563720703125	-2.48742236328125	0		-1.081022705078125	-0.004799469947814942	0		-0.7373963012695313	-2.47266015625	0		1.231172607421875	-0.9141476440429688	0		2.87712646484375	-0.13395405578613281	0		4.5353427734375	0.09385413360595703	0		5.5953564453125	0.17734375	0		-0.102181640625	5.9527421875	0		
0.013748164176940919	-0.001469514012336731	0		0.5402315063476563	-2.492151611328125	0		-1.0116780395507812	-0.010801813125610352	0		-0.7427567138671874	-2.47803564453125	0		1.224876953125	-0.9072659301757813	0		2.85676025390625	-0.12557708740234375	0		4.53579638671875	0.09498999786376953	0		5.59580029296875	0.17860816955566405	0		-0.11568917083740235	5.9415927734375	0		
-0.005866002082824707	-0.004465044975280762	0		0.47299578857421876	-2.491074951171875	0		-1.08417431640625	-0.0078104248046875	0		-0.7419881591796875	-2.477544921875	0		1.240575927734375	-0.9008507690429688	0		2.89096044921875	-0.13835719299316407	0		4.53008349609375	0.08825469970703125	0		5.5772900390625	0.18227354431152343	0		-0.11690889739990235	5.94418115234375	0		
0.013449484825134278	-0.011291012763977051	0		0.5127367553710938	-2.49226123046875	0		-1.050798828125	-0.012061532020568849	0		-0.7781904296875	-2.47529296875	0		1.21192822265625	-0.9105206298828125	0		2.8807373046875	-0.12320634460449219	0		4.53053759765625	0.08937957763671875	0		5.58668896484375	0.181339111328125	0		-0.11621356201171874	5.94271630859375	0		
-0.004935582160949707	-0.0033441059589385987	0		0.4745328063964844	-2.4898369140625	0		-1.0832430419921875	-0.006952535152435302	0		-0.7404544067382812	-2.476603515625	0		1.2334775390625	-0.9112570190429687	0		2.87905078125	-0.1302609100341797	0		4.526158203125	0.0985842742919922	0		5.587130859375	0.18257000732421874	0		-0.11647137451171875	5.94325439453125	0		
0.02049941062927246	-0.004330904006958008	0		0.5032846984863282	-2.48982861328125	0		-1.078699951171875	-0.0026355679035186767	0		-0.7705469970703125	-2.468523681640625	0		1.213072021484375	-0.9091466064453125	0		2.8906484375	-0.12361579132080078	0		4.54343798828125	0.09130516052246093	0		5.5975673828125	0.18356039428710938	0		-0.11672044372558593	5.94377001953125	0		
-0.004021094799041748	-0.0023114089965820313	0		0.4901122131347656	-2.4849794921875	0		-1.08232763671875	-0.006173863887786866	0		-0.7738882446289063	-2.472026123046875	0		1.2277305908203124	-0.9037901000976563	0		2.891115966796875	-0.12277590942382813	0		4.53188330078125	0.09258342742919921	0		5.59799951171875	0.1847147674560547	0		-0.13116014099121093	5.93455029296875	0		
-0.006661386013031006	-0.0057735881805419925	0		0.5006447448730469	-2.49365087890625	0		-1.0489749755859374	-0.010491713523864746	0		-0.7402802734375	-2.477309326171875	0		1.222416259765625	-0.8960555419921875	0		2.891570068359375	-0.12197640228271485	0		4.54431103515625	0.09332140350341797	0		5.584279296875	0.17910430908203126	0		-0.25060353088378906	5.92544384765625	0		
-0.0062385878562927245	-0.0053271989822387695	0		0.4784798583984375	-2.4856845703125	0		-1.07150634765625	-0.0076897330284118656	0		-0.7704452514648438	-2.469312744140625	0		1.2146920166015625	-0.9073131103515625	0		2.864888916015625	-0.12667121124267577	0		4.52756396484375	0.08660016632080078	0		5.58882373046875	0.18706434631347657	0		-0.11641446685791015	5.94413818359375	0		
0.004361133098602295	0.004885840892791748	0		0.5091645202636719	-2.4838251953125	0		-1.041011474609375	-0.0029875710010528567	0		-0.7307843017578125	-2.46876123046875	0		1.238218505859375	-0.9052377319335938	0		2.899617431640625	-0.11065425109863282	0		4.54135595703125	0.10720880889892578	0		5.58920361328125	0.18804710388183593	0		-0.1014171371459961	5.95423876953125	0		
-0.0023864829540252686	-5.827569961547852E-4	0		0.5066933288574219	-2.48732666015625	0		-1.04063916015625	-0.002697751045227051	0		-0.7691892700195313	-2.4686572265625	0		1.244856689453125	-0.8958533935546875	0		2.860826904296875	-0.11820279693603515	0		4.53347802734375	0.09619361877441407	0		5.58955810546875	0.18896835327148437	0		-0.11778986358642578	5.94594189453125	0		
-0.005124399185180664	-0.004161513805389404	0		0.5213333740234375	-2.4832021484375	0		-1.007384033203125	-0.007089830875396728	0		-0.7357349243164063	-2.47402490234375	0		1.2243021240234375	-0.8939617309570312	0		2.89315234375	-0.11922842407226562	0		4.53381103515625	0.09695743560791016	0		5.5857431640625	0.18290760803222655	0		-0.11797721099853516	5.9462919921875	0		
-0.001737130045890808	1.101830005645752E-4	0		0.4777337341308594	-2.48794775390625	0		-1.080041259765625	-0.004383853912353516	0		-0.7701575927734375	-2.470054931640625	0		1.218803955078125	-0.88741015625	0		2.8774931640625	-0.11733963775634766	0		4.53411083984375	0.0976617660522461	0		5.5860361328125	0.18369815063476563	0		-0.1323933563232422	5.934896484375	0		
